<?xml version="1.0" standalone="no"?>
<!DOCTYPE svg PUBLIC "-//W3C//DTD SVG 20010904//EN"
 "http://www.w3.org/TR/2001/REC-SVG-20010904/DTD/svg10.dtd">
<svg version="1.0" xmlns="http://www.w3.org/2000/svg"
 width="150.000000pt" height="150.000000pt" viewBox="0 0 150.000000 150.000000"
 preserveAspectRatio="xMidYMid meet">

<g transform="translate(0.000000,150.000000) scale(0.100000,-0.100000)"
fill="#000000" stroke="none">
<path d="M830 1340 c-24 -24 -25 -53 -4 -111 27 -75 45 -170 50 -269 2 -52 8
-98 13 -103 5 -5 21 -7 37 -5 46 5 50 56 20 208 -14 69 -31 159 -37 200 -15
102 -36 123 -79 80z"/>
<path d="M361 1324 c-90 -24 -141 -75 -141 -141 0 -50 32 -86 119 -133 148
-81 171 -98 171 -122 -1 -39 -46 -63 -114 -61 -32 1 -63 6 -69 12 -17 17 -35
13 -53 -14 -64 -97 164 -114 274 -19 34 30 37 36 37 88 0 69 -5 75 -155 162
-63 36 -118 71 -122 78 -16 24 -7 45 29 66 28 16 47 20 85 17 26 -3 54 -10 62
-16 18 -15 41 -5 55 25 29 64 -55 91 -178 58z"/>
<path d="M708 1294 c-10 -21 -9 -38 5 -87 36 -125 48 -194 51 -285 1 -50 5
-94 7 -96 2 -2 14 -6 25 -10 56 -17 68 59 35 212 -11 48 -25 123 -31 167 -18
129 -17 125 -50 125 -23 0 -33 -6 -42 -26z"/>
<path d="M1165 1248 c-30 -17 -41 -37 -59 -100 -18 -64 -31 -74 -40 -28 -3 17
-9 43 -12 59 -7 36 -26 54 -55 49 -41 -6 -43 -28 -15 -118 14 -46 37 -102 51
-126 29 -50 33 -119 10 -164 -18 -34 -18 -34 -44 -18 -49 30 -71 -35 -24 -72
79 -62 173 68 173 239 0 67 11 114 49 210 30 74 17 98 -34 69z"/>
<path d="M613 1193 c-19 -7 -16 -48 6 -67 26 -24 71 -6 71 28 0 35 -39 55 -77
39z"/>
<path d="M604 1046 c-3 -8 0 -25 7 -37 7 -13 12 -63 12 -116 1 -90 1 -94 25
-100 44 -11 55 14 54 126 -1 56 -6 110 -12 121 -13 24 -77 28 -86 6z"/>
<path d="M475 778 c-21 -12 -53 -78 -61 -126 -19 -117 127 -203 185 -109 44
71 39 132 -14 194 -36 42 -79 58 -110 41z m65 -100 c14 -15 20 -33 18 -53 -3
-27 -7 -30 -37 -30 -47 0 -60 23 -38 69 20 42 29 44 57 14z"/>
<path d="M1173 770 c-44 -26 -57 -55 -57 -125 0 -110 70 -195 160 -195 65 0
94 14 94 46 0 25 -2 26 -37 19 -124 -23 -137 14 -28 76 66 38 75 46 75 72 0
41 -27 82 -70 106 -47 26 -96 27 -137 1z m117 -65 c6 -8 10 -22 8 -32 -4 -23
-69 -58 -91 -50 -20 8 -23 67 -5 85 17 17 73 15 88 -3z"/>
<path d="M225 722 c-77 -37 -115 -103 -115 -200 0 -63 23 -146 49 -176 45 -51
116 -59 191 -21 53 27 60 41 75 147 6 46 5 48 -22 54 -39 10 -61 8 -89 -11
-31 -20 -31 -39 1 -53 31 -14 33 -54 5 -82 -16 -16 -24 -18 -50 -9 -16 6 -40
25 -51 41 -40 55 -25 223 21 248 10 6 39 10 63 10 28 0 53 7 67 18 20 16 21
19 6 31 -27 23 -106 24 -151 3z"/>
<path d="M895 671 c-37 -23 -61 -49 -70 -79 -8 -28 38 -78 81 -87 138 -31 161
-49 119 -91 -27 -27 -71 -32 -101 -9 -27 20 -41 19 -55 -6 -9 -18 -7 -25 15
-48 22 -21 35 -26 75 -25 94 3 166 65 159 136 -4 40 -36 63 -118 84 -71 17
-96 34 -87 58 8 20 47 20 109 1 42 -12 49 -12 63 1 8 9 15 19 15 23 0 15 -36
39 -75 50 -58 16 -96 14 -130 -8z"/>
<path d="M679 624 c-22 -6 -69 -94 -74 -139 -9 -67 50 -145 110 -145 47 0 105
77 105 140 0 35 -29 97 -56 122 -21 18 -60 28 -85 22z m56 -108 c9 -14 15 -37
13 -53 -3 -25 -7 -28 -37 -28 -47 0 -60 23 -38 69 20 42 40 46 62 12z"/>
</g>
</svg>
