<?xml version="1.0" standalone="no"?>
<!DOCTYPE svg PUBLIC "-//W3C//DTD SVG 20010904//EN"
 "http://www.w3.org/TR/2001/REC-SVG-20010904/DTD/svg10.dtd">
<svg version="1.0" xmlns="http://www.w3.org/2000/svg"
 width="150.000000pt" height="150.000000pt" viewBox="0 0 150.000000 150.000000"
 preserveAspectRatio="xMidYMid meet">

<g transform="translate(0.000000,150.000000) scale(0.100000,-0.100000)"
fill="#000000" stroke="none">
<path d="M0 750 l0 -750 750 0 750 0 0 750 0 750 -750 0 -750 0 0 -750z m888
598 c5 -7 15 -47 21 -88 6 -41 23 -131 37 -200 30 -152 26 -203 -20 -208 -16
-2 -32 0 -37 5 -5 5 -11 51 -13 103 -5 99 -23 194 -50 269 -21 58 -20 87 4
111 23 23 43 26 58 8z m-395 -14 c46 -8 62 -32 46 -68 -14 -30 -37 -40 -55
-25 -8 6 -36 13 -62 16 -38 3 -57 -1 -85 -17 -67 -40 -52 -65 91 -144 137 -77
153 -91 159 -146 9 -83 -52 -139 -176 -162 -45 -9 -70 -9 -100 0 -44 14 -55
31 -41 67 12 31 35 42 55 25 7 -6 40 -12 72 -13 67 -2 112 22 113 61 0 24 -23
41 -171 122 -88 48 -119 83 -119 135 0 65 62 122 157 144 48 11 69 12 116 5z
m291 -36 c3 -13 10 -59 16 -103 6 -44 20 -119 31 -167 33 -153 21 -229 -35
-212 -11 4 -23 8 -25 10 -2 2 -6 46 -7 96 -3 91 -15 160 -51 285 -22 77 -10
113 37 113 23 0 31 -5 34 -22z m431 -48 c4 -6 -10 -56 -29 -111 -28 -78 -36
-116 -36 -169 0 -172 -94 -302 -173 -240 -47 37 -25 102 24 72 26 -16 26 -16
44 18 23 45 19 114 -10 164 -14 24 -37 80 -51 126 -28 90 -26 112 15 118 29 5
48 -13 55 -49 3 -16 9 -42 12 -59 9 -46 22 -36 40 28 18 63 29 83 59 100 25
14 42 15 50 2z m-544 -60 c29 -16 25 -58 -7 -71 -21 -7 -31 -6 -45 7 -47 42
-4 94 52 64z m19 -150 c6 -11 11 -65 12 -121 1 -112 -10 -137 -54 -126 -24 6
-24 10 -25 100 0 53 -5 103 -12 116 -18 34 -7 51 33 51 25 0 38 -6 46 -20z
m-105 -303 c53 -62 58 -123 14 -194 -59 -95 -206 -4 -184 113 8 48 40 110 60
122 31 17 74 1 110 -41z m725 32 c43 -24 70 -65 70 -106 0 -26 -9 -34 -75 -72
-109 -62 -96 -99 28 -76 35 7 37 6 37 -19 0 -34 -37 -49 -108 -44 -88 8 -145
83 -145 193 -1 70 12 99 56 125 41 26 90 25 137 -1z m-934 -50 c15 -12 14 -15
-6 -31 -14 -11 -39 -18 -67 -18 -24 0 -53 -4 -63 -10 -46 -25 -61 -193 -21
-248 11 -16 35 -35 51 -41 26 -9 34 -7 50 9 28 28 26 68 -5 82 -32 14 -32 33
-1 53 28 19 50 21 89 11 27 -6 28 -8 22 -54 -15 -106 -22 -120 -75 -147 -75
-38 -146 -30 -191 21 -26 30 -49 113 -49 176 0 97 38 163 115 200 45 21 124
20 151 -3z m649 -40 c49 -12 78 -38 69 -62 -9 -23 -26 -26 -69 -11 -54 19
-104 18 -112 -2 -9 -24 16 -41 87 -58 82 -21 114 -44 118 -84 7 -71 -65 -133
-159 -136 -40 -1 -53 4 -75 25 -22 23 -24 30 -15 48 14 25 28 26 55 6 30 -23
74 -18 101 9 42 42 19 60 -119 91 -43 9 -89 59 -81 87 9 30 33 56 70 79 34 22
68 24 130 8z m-261 -77 c27 -25 56 -87 56 -122 0 -63 -58 -140 -105 -140 -60
0 -119 78 -110 145 5 45 52 133 74 139 25 6 64 -4 85 -22z"/>
<path d="M483 664 c-22 -46 -9 -69 38 -69 30 0 34 3 37 30 2 20 -4 38 -18 53
-28 30 -37 28 -57 -14z"/>
<path d="M1202 708 c-18 -18 -15 -77 5 -85 22 -8 87 27 91 50 2 10 -2 24 -8
32 -15 18 -71 20 -88 3z"/>
<path d="M673 504 c-22 -46 -9 -69 38 -69 30 0 34 3 37 28 4 32 -21 77 -43 77
-9 0 -23 -16 -32 -36z"/>
</g>
</svg>
